<svg width="195" height="160" viewBox="0 0 195 160" fill="none" xmlns="http://www.w3.org/2000/svg">
<ellipse cx="167.5" cy="124" rx="16.5" ry="17" fill="#E6E6E6"/>
<ellipse cx="178.5" cy="100" rx="16.5" ry="17" fill="#E6E6E6"/>
<ellipse cx="16.5" cy="102" rx="16.5" ry="17" fill="#E6E6E6"/>
<ellipse cx="29.5" cy="124" rx="16.5" ry="17" fill="#E6E6E6"/>
<ellipse cx="31.5" cy="119" rx="16.5" ry="17" fill="#6C63FF"/>
<ellipse cx="19.5" cy="102" rx="16.5" ry="17" fill="#6C63FF"/>
<ellipse cx="165.5" cy="119" rx="16.5" ry="17" fill="#6C63FF"/>
<ellipse cx="174.5" cy="100" rx="16.5" ry="17" fill="#6C63FF"/>
<ellipse cx="97" cy="80" rx="81" ry="80" fill="#E6E6E6"/>
<ellipse cx="97" cy="80" rx="77" ry="76" fill="#6C63FF"/>
<ellipse cx="69" cy="52.5" rx="31" ry="32.5" fill="#0F0F0F"/>
<circle cx="69.5" cy="52.5" r="27.5" fill="#FAF6F6"/>
<ellipse cx="69.5" cy="44" rx="7.5" ry="8" fill="#090909"/>
<ellipse cx="121" cy="52.5" rx="31" ry="32.5" fill="#0F0F0F"/>
<circle cx="121.5" cy="52.5" r="27.5" fill="#FAF6F6"/>
<ellipse cx="121.5" cy="44" rx="7.5" ry="8" fill="#090909"/>
<path d="M104.945 105.378L80.1833 122.492L92.1701 78.1221L104.945 105.378Z" fill="black"/>
<path d="M48 30C42.9045 26.1398 38.3862 22.6931 33 20" stroke="black" stroke-width="7" stroke-linecap="round"/>
<path d="M147 36C153.115 32.1398 158.537 28.6931 165 26" stroke="black" stroke-width="7" stroke-linecap="round"/>
<path d="M139 26C143.416 22.1398 147.332 18.6931 152 16" stroke="black" stroke-width="7" stroke-linecap="round"/>
<path d="M39.4368 41.493C32.3663 37.239 26.0893 33.4328 19.0414 30.9193" stroke="black" stroke-width="7" stroke-linecap="round"/>
<path d="M99.8102 104.941L82 120.957L92.4881 82.1345L99.8102 104.941Z" fill="#D7860D"/>
</svg>
